<svg width="20" height="24" viewBox="0 0 20 24" fill="none" xmlns="http://www.w3.org/2000/svg">
    <path d="M5 2.59091H2V5.72727H0V0.5H5V2.59091ZM20 5.72727V0.5H15V2.59091H18V5.72727H20ZM5 21.4091H2V18.2727H0V23.5H5V21.4091ZM18 18.2727V21.4091H15V23.5H20V18.2727H18ZM15 5.72727H5V18.2727H15V5.72727ZM17 18.2727C17 19.4227 16.1 20.3636 15 20.3636H5C3.9 20.3636 3 19.4227 3 18.2727V5.72727C3 4.57727 3.9 3.63636 5 3.63636H15C16.1 3.63636 17 4.57727 17 5.72727V18.2727ZM13 7.81818H7V9.90909H13V7.81818ZM13 10.9545H7V13.0455H13V10.9545ZM13 14.0909H7V16.1818H13V14.0909Z" fill="black"/>
</svg>
