<svg width="447" height="40" viewBox="0 0 447 40" fill="none" xmlns="http://www.w3.org/2000/svg">
    <path d="M15.2539 2.5625V31H9.41406V2.5625H15.2539ZM24.0039 2.5625V7.15234H0.800781V2.5625H24.0039ZM32.4805 1V31H26.8555V1H32.4805ZM31.6797 19.6914H30.1367C30.1497 18.2201 30.3451 16.8659 30.7227 15.6289C31.1003 14.3789 31.6406 13.2982 32.3438 12.3867C33.0469 11.4622 33.8867 10.7461 34.8633 10.2383C35.8529 9.73047 36.9466 9.47656 38.1445 9.47656C39.1862 9.47656 40.1302 9.6263 40.9766 9.92578C41.8359 10.2122 42.5716 10.681 43.1836 11.332C43.8086 11.9701 44.2904 12.8099 44.6289 13.8516C44.9674 14.8932 45.1367 16.1562 45.1367 17.6406V31H39.4727V17.6016C39.4727 16.6641 39.3359 15.9284 39.0625 15.3945C38.8021 14.8477 38.418 14.4635 37.9102 14.2422C37.4154 14.0078 36.8034 13.8906 36.0742 13.8906C35.2669 13.8906 34.5768 14.0404 34.0039 14.3398C33.444 14.6393 32.9948 15.056 32.6562 15.5898C32.3177 16.1107 32.0703 16.7227 31.9141 17.4258C31.7578 18.1289 31.6797 18.8841 31.6797 19.6914ZM59.1406 31.3906C57.5 31.3906 56.0286 31.1302 54.7266 30.6094C53.4245 30.0755 52.3177 29.3398 51.4062 28.4023C50.5078 27.4648 49.8177 26.3776 49.3359 25.1406C48.8542 23.8906 48.6133 22.5625 48.6133 21.1562V20.375C48.6133 18.7734 48.8411 17.3086 49.2969 15.9805C49.7526 14.6523 50.4036 13.5 51.25 12.5234C52.1094 11.5469 53.151 10.7982 54.375 10.2773C55.599 9.74349 56.9792 9.47656 58.5156 9.47656C60.013 9.47656 61.3411 9.72396 62.5 10.2188C63.6589 10.7135 64.6289 11.4167 65.4102 12.3281C66.2044 13.2396 66.8034 14.3333 67.207 15.6094C67.6107 16.8724 67.8125 18.2786 67.8125 19.8281V22.1719H51.0156V18.4219H62.2852V17.9922C62.2852 17.2109 62.1419 16.5143 61.8555 15.9023C61.582 15.2773 61.1654 14.7826 60.6055 14.418C60.0456 14.0534 59.3294 13.8711 58.457 13.8711C57.7148 13.8711 57.0768 14.0339 56.543 14.3594C56.0091 14.6849 55.5729 15.1406 55.2344 15.7266C54.9089 16.3125 54.6615 17.0026 54.4922 17.7969C54.3359 18.5781 54.2578 19.4375 54.2578 20.375V21.1562C54.2578 22.0026 54.375 22.7839 54.6094 23.5C54.8568 24.2161 55.2018 24.8346 55.6445 25.3555C56.1003 25.8763 56.6471 26.2799 57.2852 26.5664C57.9362 26.8529 58.6719 26.9961 59.4922 26.9961C60.5078 26.9961 61.4518 26.8008 62.3242 26.4102C63.2096 26.0065 63.9714 25.401 64.6094 24.5938L67.3438 27.5625C66.901 28.2005 66.2956 28.8125 65.5273 29.3984C64.7721 29.9844 63.8607 30.4661 62.793 30.8438C61.7253 31.2083 60.5078 31.3906 59.1406 31.3906ZM80.9766 1H86.6016V26.1562L86.0352 31H80.9766V1ZM99.9805 20.2188V20.6289C99.9805 22.2044 99.8112 23.6497 99.4727 24.9648C99.1471 26.2799 98.6393 27.4193 97.9492 28.3828C97.2591 29.3333 96.3997 30.0755 95.3711 30.6094C94.3555 31.1302 93.1576 31.3906 91.7773 31.3906C90.4883 31.3906 89.3685 31.1302 88.418 30.6094C87.4805 30.0885 86.6927 29.3529 86.0547 28.4023C85.4167 27.4518 84.9023 26.3385 84.5117 25.0625C84.1211 23.7865 83.8281 22.3932 83.6328 20.8828V19.9844C83.8281 18.474 84.1211 17.0807 84.5117 15.8047C84.9023 14.5286 85.4167 13.4154 86.0547 12.4648C86.6927 11.5143 87.4805 10.7786 88.418 10.2578C89.3555 9.73698 90.4622 9.47656 91.7383 9.47656C93.1315 9.47656 94.3424 9.74349 95.3711 10.2773C96.4128 10.7982 97.2721 11.5404 97.9492 12.5039C98.6393 13.4544 99.1471 14.5872 99.4727 15.9023C99.8112 17.2044 99.9805 18.6432 99.9805 20.2188ZM94.3555 20.6289V20.2188C94.3555 19.3594 94.2904 18.5521 94.1602 17.7969C94.043 17.0286 93.8346 16.3581 93.5352 15.7852C93.2357 15.1992 92.8255 14.737 92.3047 14.3984C91.7969 14.0599 91.1393 13.8906 90.332 13.8906C89.5638 13.8906 88.9128 14.0208 88.3789 14.2812C87.8451 14.5417 87.4023 14.9062 87.0508 15.375C86.7122 15.8438 86.4583 16.4036 86.2891 17.0547C86.1198 17.6927 86.0156 18.3958 85.9766 19.1641V21.7227C86.0156 22.7513 86.1849 23.6628 86.4844 24.457C86.7969 25.2383 87.2656 25.8568 87.8906 26.3125C88.5286 26.7552 89.3555 26.9766 90.3711 26.9766C91.1654 26.9766 91.8229 26.8203 92.3438 26.5078C92.8646 26.1953 93.2682 25.7526 93.5547 25.1797C93.8542 24.6068 94.0625 23.9362 94.1797 23.168C94.2969 22.3867 94.3555 21.5404 94.3555 20.6289ZM113.203 31.3906C111.562 31.3906 110.091 31.1302 108.789 30.6094C107.487 30.0755 106.38 29.3398 105.469 28.4023C104.57 27.4648 103.88 26.3776 103.398 25.1406C102.917 23.8906 102.676 22.5625 102.676 21.1562V20.375C102.676 18.7734 102.904 17.3086 103.359 15.9805C103.815 14.6523 104.466 13.5 105.312 12.5234C106.172 11.5469 107.214 10.7982 108.438 10.2773C109.661 9.74349 111.042 9.47656 112.578 9.47656C114.076 9.47656 115.404 9.72396 116.562 10.2188C117.721 10.7135 118.691 11.4167 119.473 12.3281C120.267 13.2396 120.866 14.3333 121.27 15.6094C121.673 16.8724 121.875 18.2786 121.875 19.8281V22.1719H105.078V18.4219H116.348V17.9922C116.348 17.2109 116.204 16.5143 115.918 15.9023C115.645 15.2773 115.228 14.7826 114.668 14.418C114.108 14.0534 113.392 13.8711 112.52 13.8711C111.777 13.8711 111.139 14.0339 110.605 14.3594C110.072 14.6849 109.635 15.1406 109.297 15.7266C108.971 16.3125 108.724 17.0026 108.555 17.7969C108.398 18.5781 108.32 19.4375 108.32 20.375V21.1562C108.32 22.0026 108.438 22.7839 108.672 23.5C108.919 24.2161 109.264 24.8346 109.707 25.3555C110.163 25.8763 110.71 26.2799 111.348 26.5664C111.999 26.8529 112.734 26.9961 113.555 26.9961C114.57 26.9961 115.514 26.8008 116.387 26.4102C117.272 26.0065 118.034 25.401 118.672 24.5938L121.406 27.5625C120.964 28.2005 120.358 28.8125 119.59 29.3984C118.835 29.9844 117.923 30.4661 116.855 30.8438C115.788 31.2083 114.57 31.3906 113.203 31.3906ZM136.504 25.1602C136.504 24.7565 136.387 24.3919 136.152 24.0664C135.918 23.7409 135.482 23.4414 134.844 23.168C134.219 22.8815 133.314 22.6211 132.129 22.3867C131.061 22.1523 130.065 21.8594 129.141 21.5078C128.229 21.1432 127.435 20.707 126.758 20.1992C126.094 19.6914 125.573 19.0924 125.195 18.4023C124.818 17.6992 124.629 16.8984 124.629 16C124.629 15.1146 124.818 14.2812 125.195 13.5C125.586 12.7188 126.139 12.0286 126.855 11.4297C127.585 10.8177 128.47 10.3424 129.512 10.0039C130.566 9.65234 131.751 9.47656 133.066 9.47656C134.902 9.47656 136.478 9.76953 137.793 10.3555C139.121 10.9414 140.137 11.7487 140.84 12.7773C141.556 13.793 141.914 14.9518 141.914 16.2539H136.289C136.289 15.707 136.172 15.2188 135.938 14.7891C135.716 14.3464 135.365 14.0013 134.883 13.7539C134.414 13.4935 133.802 13.3633 133.047 13.3633C132.422 13.3633 131.882 13.474 131.426 13.6953C130.97 13.9036 130.618 14.1901 130.371 14.5547C130.137 14.9062 130.02 15.2969 130.02 15.7266C130.02 16.0521 130.085 16.3451 130.215 16.6055C130.358 16.8529 130.586 17.0807 130.898 17.2891C131.211 17.4974 131.615 17.6927 132.109 17.875C132.617 18.0443 133.242 18.2005 133.984 18.3438C135.508 18.6562 136.868 19.0664 138.066 19.5742C139.264 20.069 140.215 20.7461 140.918 21.6055C141.621 22.4518 141.973 23.5651 141.973 24.9453C141.973 25.8828 141.764 26.7422 141.348 27.5234C140.931 28.3047 140.332 28.9883 139.551 29.5742C138.77 30.1471 137.832 30.5964 136.738 30.9219C135.658 31.2344 134.44 31.3906 133.086 31.3906C131.12 31.3906 129.453 31.0391 128.086 30.3359C126.732 29.6328 125.703 28.7409 125 27.6602C124.31 26.5664 123.965 25.4466 123.965 24.3008H129.297C129.323 25.069 129.518 25.6875 129.883 26.1562C130.26 26.625 130.736 26.9635 131.309 27.1719C131.895 27.3802 132.526 27.4844 133.203 27.4844C133.932 27.4844 134.538 27.3867 135.02 27.1914C135.501 26.9831 135.866 26.7096 136.113 26.3711C136.374 26.0195 136.504 25.6159 136.504 25.1602ZM155.977 9.86719V13.8516H143.672V9.86719H155.977ZM146.719 4.65234H152.344V24.6328C152.344 25.2448 152.422 25.7135 152.578 26.0391C152.747 26.3646 152.995 26.5924 153.32 26.7227C153.646 26.8398 154.056 26.8984 154.551 26.8984C154.902 26.8984 155.215 26.8854 155.488 26.8594C155.775 26.8203 156.016 26.7812 156.211 26.7422L156.23 30.8828C155.749 31.0391 155.228 31.1628 154.668 31.2539C154.108 31.3451 153.49 31.3906 152.812 31.3906C151.576 31.3906 150.495 31.1888 149.57 30.7852C148.659 30.3685 147.956 29.7044 147.461 28.793C146.966 27.8815 146.719 26.6836 146.719 25.1992V4.65234ZM174.766 13.9297V39.125H169.141V9.86719H174.355L174.766 13.9297ZM188.145 20.1992V20.6094C188.145 22.1458 187.962 23.5716 187.598 24.8867C187.246 26.2018 186.725 27.3477 186.035 28.3242C185.345 29.2878 184.486 30.043 183.457 30.5898C182.441 31.1237 181.27 31.3906 179.941 31.3906C178.652 31.3906 177.533 31.1302 176.582 30.6094C175.632 30.0885 174.831 29.3594 174.18 28.4219C173.542 27.4714 173.027 26.3711 172.637 25.1211C172.246 23.8711 171.947 22.5299 171.738 21.0977V20.0234C171.947 18.487 172.246 17.0807 172.637 15.8047C173.027 14.5156 173.542 13.4023 174.18 12.4648C174.831 11.5143 175.625 10.7786 176.562 10.2578C177.513 9.73698 178.626 9.47656 179.902 9.47656C181.243 9.47656 182.422 9.73047 183.438 10.2383C184.466 10.7461 185.326 11.4753 186.016 12.4258C186.719 13.3763 187.246 14.5091 187.598 15.8242C187.962 17.1393 188.145 18.5977 188.145 20.1992ZM182.5 20.6094V20.1992C182.5 19.3008 182.422 18.474 182.266 17.7188C182.122 16.9505 181.888 16.2799 181.562 15.707C181.25 15.1341 180.833 14.6914 180.312 14.3789C179.805 14.0534 179.186 13.8906 178.457 13.8906C177.689 13.8906 177.031 14.0143 176.484 14.2617C175.951 14.5091 175.514 14.8672 175.176 15.3359C174.837 15.8047 174.583 16.3646 174.414 17.0156C174.245 17.6667 174.141 18.4023 174.102 19.2227V21.9375C174.167 22.901 174.349 23.7669 174.648 24.5352C174.948 25.2904 175.41 25.8893 176.035 26.332C176.66 26.7747 177.48 26.9961 178.496 26.9961C179.238 26.9961 179.863 26.8333 180.371 26.5078C180.879 26.1693 181.289 25.707 181.602 25.1211C181.927 24.5352 182.155 23.8581 182.285 23.0898C182.428 22.3216 182.5 21.4948 182.5 20.6094ZM190.742 20.6484V20.2383C190.742 18.6888 190.964 17.263 191.406 15.9609C191.849 14.6458 192.493 13.5065 193.34 12.543C194.186 11.5794 195.228 10.8307 196.465 10.2969C197.702 9.75 199.121 9.47656 200.723 9.47656C202.324 9.47656 203.75 9.75 205 10.2969C206.25 10.8307 207.298 11.5794 208.145 12.543C209.004 13.5065 209.655 14.6458 210.098 15.9609C210.54 17.263 210.762 18.6888 210.762 20.2383V20.6484C210.762 22.1849 210.54 23.6107 210.098 24.9258C209.655 26.2279 209.004 27.3672 208.145 28.3438C207.298 29.3073 206.257 30.056 205.02 30.5898C203.783 31.1237 202.363 31.3906 200.762 31.3906C199.16 31.3906 197.734 31.1237 196.484 30.5898C195.247 30.056 194.199 29.3073 193.34 28.3438C192.493 27.3672 191.849 26.2279 191.406 24.9258C190.964 23.6107 190.742 22.1849 190.742 20.6484ZM196.367 20.2383V20.6484C196.367 21.5339 196.445 22.3607 196.602 23.1289C196.758 23.8971 197.005 24.5742 197.344 25.1602C197.695 25.7331 198.151 26.1823 198.711 26.5078C199.271 26.8333 199.954 26.9961 200.762 26.9961C201.543 26.9961 202.214 26.8333 202.773 26.5078C203.333 26.1823 203.783 25.7331 204.121 25.1602C204.46 24.5742 204.707 23.8971 204.863 23.1289C205.033 22.3607 205.117 21.5339 205.117 20.6484V20.2383C205.117 19.3789 205.033 18.5716 204.863 17.8164C204.707 17.0482 204.453 16.3711 204.102 15.7852C203.763 15.1862 203.314 14.7174 202.754 14.3789C202.194 14.0404 201.517 13.8711 200.723 13.8711C199.928 13.8711 199.251 14.0404 198.691 14.3789C198.145 14.7174 197.695 15.1862 197.344 15.7852C197.005 16.3711 196.758 17.0482 196.602 17.8164C196.445 18.5716 196.367 19.3789 196.367 20.2383ZM225.645 25.1602C225.645 24.7565 225.527 24.3919 225.293 24.0664C225.059 23.7409 224.622 23.4414 223.984 23.168C223.359 22.8815 222.454 22.6211 221.27 22.3867C220.202 22.1523 219.206 21.8594 218.281 21.5078C217.37 21.1432 216.576 20.707 215.898 20.1992C215.234 19.6914 214.714 19.0924 214.336 18.4023C213.958 17.6992 213.77 16.8984 213.77 16C213.77 15.1146 213.958 14.2812 214.336 13.5C214.727 12.7188 215.28 12.0286 215.996 11.4297C216.725 10.8177 217.611 10.3424 218.652 10.0039C219.707 9.65234 220.892 9.47656 222.207 9.47656C224.043 9.47656 225.618 9.76953 226.934 10.3555C228.262 10.9414 229.277 11.7487 229.98 12.7773C230.697 13.793 231.055 14.9518 231.055 16.2539H225.43C225.43 15.707 225.312 15.2188 225.078 14.7891C224.857 14.3464 224.505 14.0013 224.023 13.7539C223.555 13.4935 222.943 13.3633 222.188 13.3633C221.562 13.3633 221.022 13.474 220.566 13.6953C220.111 13.9036 219.759 14.1901 219.512 14.5547C219.277 14.9062 219.16 15.2969 219.16 15.7266C219.16 16.0521 219.225 16.3451 219.355 16.6055C219.499 16.8529 219.727 17.0807 220.039 17.2891C220.352 17.4974 220.755 17.6927 221.25 17.875C221.758 18.0443 222.383 18.2005 223.125 18.3438C224.648 18.6562 226.009 19.0664 227.207 19.5742C228.405 20.069 229.355 20.7461 230.059 21.6055C230.762 22.4518 231.113 23.5651 231.113 24.9453C231.113 25.8828 230.905 26.7422 230.488 27.5234C230.072 28.3047 229.473 28.9883 228.691 29.5742C227.91 30.1471 226.973 30.5964 225.879 30.9219C224.798 31.2344 223.581 31.3906 222.227 31.3906C220.26 31.3906 218.594 31.0391 217.227 30.3359C215.872 29.6328 214.844 28.7409 214.141 27.6602C213.451 26.5664 213.105 25.4466 213.105 24.3008H218.438C218.464 25.069 218.659 25.6875 219.023 26.1562C219.401 26.625 219.876 26.9635 220.449 27.1719C221.035 27.3802 221.667 27.4844 222.344 27.4844C223.073 27.4844 223.678 27.3867 224.16 27.1914C224.642 26.9831 225.007 26.7096 225.254 26.3711C225.514 26.0195 225.645 25.6159 225.645 25.1602ZM240.703 9.86719V31H235.059V9.86719H240.703ZM234.707 4.35938C234.707 3.53906 234.993 2.86198 235.566 2.32812C236.139 1.79427 236.908 1.52734 237.871 1.52734C238.822 1.52734 239.583 1.79427 240.156 2.32812C240.742 2.86198 241.035 3.53906 241.035 4.35938C241.035 5.17969 240.742 5.85677 240.156 6.39062C239.583 6.92448 238.822 7.19141 237.871 7.19141C236.908 7.19141 236.139 6.92448 235.566 6.39062C234.993 5.85677 234.707 5.17969 234.707 4.35938ZM255.703 9.86719V13.8516H243.398V9.86719H255.703ZM246.445 4.65234H252.07V24.6328C252.07 25.2448 252.148 25.7135 252.305 26.0391C252.474 26.3646 252.721 26.5924 253.047 26.7227C253.372 26.8398 253.783 26.8984 254.277 26.8984C254.629 26.8984 254.941 26.8854 255.215 26.8594C255.501 26.8203 255.742 26.7812 255.938 26.7422L255.957 30.8828C255.475 31.0391 254.954 31.1628 254.395 31.2539C253.835 31.3451 253.216 31.3906 252.539 31.3906C251.302 31.3906 250.221 31.1888 249.297 30.7852C248.385 30.3685 247.682 29.7044 247.188 28.793C246.693 27.8815 246.445 26.6836 246.445 25.1992V4.65234ZM264.844 9.86719V31H259.199V9.86719H264.844ZM258.848 4.35938C258.848 3.53906 259.134 2.86198 259.707 2.32812C260.28 1.79427 261.048 1.52734 262.012 1.52734C262.962 1.52734 263.724 1.79427 264.297 2.32812C264.883 2.86198 265.176 3.53906 265.176 4.35938C265.176 5.17969 264.883 5.85677 264.297 6.39062C263.724 6.92448 262.962 7.19141 262.012 7.19141C261.048 7.19141 260.28 6.92448 259.707 6.39062C259.134 5.85677 258.848 5.17969 258.848 4.35938ZM268.594 20.6484V20.2383C268.594 18.6888 268.815 17.263 269.258 15.9609C269.701 14.6458 270.345 13.5065 271.191 12.543C272.038 11.5794 273.079 10.8307 274.316 10.2969C275.553 9.75 276.973 9.47656 278.574 9.47656C280.176 9.47656 281.602 9.75 282.852 10.2969C284.102 10.8307 285.15 11.5794 285.996 12.543C286.855 13.5065 287.507 14.6458 287.949 15.9609C288.392 17.263 288.613 18.6888 288.613 20.2383V20.6484C288.613 22.1849 288.392 23.6107 287.949 24.9258C287.507 26.2279 286.855 27.3672 285.996 28.3438C285.15 29.3073 284.108 30.056 282.871 30.5898C281.634 31.1237 280.215 31.3906 278.613 31.3906C277.012 31.3906 275.586 31.1237 274.336 30.5898C273.099 30.056 272.051 29.3073 271.191 28.3438C270.345 27.3672 269.701 26.2279 269.258 24.9258C268.815 23.6107 268.594 22.1849 268.594 20.6484ZM274.219 20.2383V20.6484C274.219 21.5339 274.297 22.3607 274.453 23.1289C274.609 23.8971 274.857 24.5742 275.195 25.1602C275.547 25.7331 276.003 26.1823 276.562 26.5078C277.122 26.8333 277.806 26.9961 278.613 26.9961C279.395 26.9961 280.065 26.8333 280.625 26.5078C281.185 26.1823 281.634 25.7331 281.973 25.1602C282.311 24.5742 282.559 23.8971 282.715 23.1289C282.884 22.3607 282.969 21.5339 282.969 20.6484V20.2383C282.969 19.3789 282.884 18.5716 282.715 17.8164C282.559 17.0482 282.305 16.3711 281.953 15.7852C281.615 15.1862 281.165 14.7174 280.605 14.3789C280.046 14.0404 279.368 13.8711 278.574 13.8711C277.78 13.8711 277.103 14.0404 276.543 14.3789C275.996 14.7174 275.547 15.1862 275.195 15.7852C274.857 16.3711 274.609 17.0482 274.453 17.8164C274.297 18.5716 274.219 19.3789 274.219 20.2383ZM297.578 14.3789V31H291.953V9.86719H297.227L297.578 14.3789ZM296.758 19.6914H295.234C295.234 18.1289 295.436 16.7227 295.84 15.4727C296.243 14.2096 296.81 13.1354 297.539 12.25C298.268 11.3516 299.134 10.668 300.137 10.1992C301.152 9.71745 302.285 9.47656 303.535 9.47656C304.525 9.47656 305.43 9.61979 306.25 9.90625C307.07 10.1927 307.773 10.6484 308.359 11.2734C308.958 11.8984 309.414 12.7253 309.727 13.7539C310.052 14.7826 310.215 16.0391 310.215 17.5234V31H304.551V17.5039C304.551 16.5664 304.421 15.8372 304.16 15.3164C303.9 14.7956 303.516 14.431 303.008 14.2227C302.513 14.0013 301.901 13.8906 301.172 13.8906C300.417 13.8906 299.759 14.0404 299.199 14.3398C298.652 14.6393 298.197 15.056 297.832 15.5898C297.48 16.1107 297.214 16.7227 297.031 17.4258C296.849 18.1289 296.758 18.8841 296.758 19.6914Z" fill="#AB1F24"/>
    <path d="M331.621 31H325.957V7.99219C325.957 6.39062 326.27 5.04297 326.895 3.94922C327.533 2.84245 328.424 2.00911 329.57 1.44922C330.729 0.876302 332.103 0.589844 333.691 0.589844C334.212 0.589844 334.714 0.628906 335.195 0.707031C335.677 0.772135 336.146 0.856771 336.602 0.960938L336.543 5.19922C336.296 5.13411 336.035 5.08854 335.762 5.0625C335.488 5.03646 335.169 5.02344 334.805 5.02344C334.128 5.02344 333.548 5.14062 333.066 5.375C332.598 5.59635 332.24 5.92839 331.992 6.37109C331.745 6.8138 331.621 7.35417 331.621 7.99219V31ZM335.84 9.86719V13.8516H322.812V9.86719H335.84ZM337.891 20.6484V20.2383C337.891 18.6888 338.112 17.263 338.555 15.9609C338.997 14.6458 339.642 13.5065 340.488 12.543C341.335 11.5794 342.376 10.8307 343.613 10.2969C344.85 9.75 346.27 9.47656 347.871 9.47656C349.473 9.47656 350.898 9.75 352.148 10.2969C353.398 10.8307 354.447 11.5794 355.293 12.543C356.152 13.5065 356.803 14.6458 357.246 15.9609C357.689 17.263 357.91 18.6888 357.91 20.2383V20.6484C357.91 22.1849 357.689 23.6107 357.246 24.9258C356.803 26.2279 356.152 27.3672 355.293 28.3438C354.447 29.3073 353.405 30.056 352.168 30.5898C350.931 31.1237 349.512 31.3906 347.91 31.3906C346.309 31.3906 344.883 31.1237 343.633 30.5898C342.396 30.056 341.348 29.3073 340.488 28.3438C339.642 27.3672 338.997 26.2279 338.555 24.9258C338.112 23.6107 337.891 22.1849 337.891 20.6484ZM343.516 20.2383V20.6484C343.516 21.5339 343.594 22.3607 343.75 23.1289C343.906 23.8971 344.154 24.5742 344.492 25.1602C344.844 25.7331 345.299 26.1823 345.859 26.5078C346.419 26.8333 347.103 26.9961 347.91 26.9961C348.691 26.9961 349.362 26.8333 349.922 26.5078C350.482 26.1823 350.931 25.7331 351.27 25.1602C351.608 24.5742 351.855 23.8971 352.012 23.1289C352.181 22.3607 352.266 21.5339 352.266 20.6484V20.2383C352.266 19.3789 352.181 18.5716 352.012 17.8164C351.855 17.0482 351.602 16.3711 351.25 15.7852C350.911 15.1862 350.462 14.7174 349.902 14.3789C349.342 14.0404 348.665 13.8711 347.871 13.8711C347.077 13.8711 346.4 14.0404 345.84 14.3789C345.293 14.7174 344.844 15.1862 344.492 15.7852C344.154 16.3711 343.906 17.0482 343.75 17.8164C343.594 18.5716 343.516 19.3789 343.516 20.2383ZM366.992 14.4766V31H361.367V9.86719H366.66L366.992 14.4766ZM373.359 9.73047L373.262 14.9453C372.988 14.9062 372.656 14.8737 372.266 14.8477C371.888 14.8086 371.543 14.7891 371.23 14.7891C370.436 14.7891 369.746 14.8932 369.16 15.1016C368.587 15.2969 368.105 15.5898 367.715 15.9805C367.337 16.3711 367.051 16.8464 366.855 17.4062C366.673 17.9661 366.569 18.6042 366.543 19.3203L365.41 18.9688C365.41 17.6016 365.547 16.3451 365.82 15.1992C366.094 14.0404 366.491 13.0312 367.012 12.1719C367.546 11.3125 368.197 10.6484 368.965 10.1797C369.733 9.71094 370.612 9.47656 371.602 9.47656C371.914 9.47656 372.233 9.5026 372.559 9.55469C372.884 9.59375 373.151 9.65234 373.359 9.73047ZM392.246 28.6172L397.852 9.86719H403.887L395.391 34.1836C395.208 34.7174 394.961 35.2904 394.648 35.9023C394.349 36.5143 393.939 37.0938 393.418 37.6406C392.91 38.2005 392.266 38.6562 391.484 39.0078C390.716 39.3594 389.772 39.5352 388.652 39.5352C388.118 39.5352 387.682 39.5026 387.344 39.4375C387.005 39.3724 386.602 39.2812 386.133 39.1641V35.043C386.276 35.043 386.426 35.043 386.582 35.043C386.738 35.056 386.888 35.0625 387.031 35.0625C387.773 35.0625 388.379 34.9779 388.848 34.8086C389.316 34.6393 389.694 34.3789 389.98 34.0273C390.267 33.6888 390.495 33.2461 390.664 32.6992L392.246 28.6172ZM389.902 9.86719L394.492 25.1797L395.293 31.1367L391.465 31.5469L383.867 9.86719H389.902ZM404.922 20.6484V20.2383C404.922 18.6888 405.143 17.263 405.586 15.9609C406.029 14.6458 406.673 13.5065 407.52 12.543C408.366 11.5794 409.408 10.8307 410.645 10.2969C411.882 9.75 413.301 9.47656 414.902 9.47656C416.504 9.47656 417.93 9.75 419.18 10.2969C420.43 10.8307 421.478 11.5794 422.324 12.543C423.184 13.5065 423.835 14.6458 424.277 15.9609C424.72 17.263 424.941 18.6888 424.941 20.2383V20.6484C424.941 22.1849 424.72 23.6107 424.277 24.9258C423.835 26.2279 423.184 27.3672 422.324 28.3438C421.478 29.3073 420.436 30.056 419.199 30.5898C417.962 31.1237 416.543 31.3906 414.941 31.3906C413.34 31.3906 411.914 31.1237 410.664 30.5898C409.427 30.056 408.379 29.3073 407.52 28.3438C406.673 27.3672 406.029 26.2279 405.586 24.9258C405.143 23.6107 404.922 22.1849 404.922 20.6484ZM410.547 20.2383V20.6484C410.547 21.5339 410.625 22.3607 410.781 23.1289C410.938 23.8971 411.185 24.5742 411.523 25.1602C411.875 25.7331 412.331 26.1823 412.891 26.5078C413.451 26.8333 414.134 26.9961 414.941 26.9961C415.723 26.9961 416.393 26.8333 416.953 26.5078C417.513 26.1823 417.962 25.7331 418.301 25.1602C418.639 24.5742 418.887 23.8971 419.043 23.1289C419.212 22.3607 419.297 21.5339 419.297 20.6484V20.2383C419.297 19.3789 419.212 18.5716 419.043 17.8164C418.887 17.0482 418.633 16.3711 418.281 15.7852C417.943 15.1862 417.493 14.7174 416.934 14.3789C416.374 14.0404 415.697 13.8711 414.902 13.8711C414.108 13.8711 413.431 14.0404 412.871 14.3789C412.324 14.7174 411.875 15.1862 411.523 15.7852C411.185 16.3711 410.938 17.0482 410.781 17.8164C410.625 18.5716 410.547 19.3789 410.547 20.2383ZM440.898 25.9414V9.86719H446.523V31H441.23L440.898 25.9414ZM441.523 21.6055L443.184 21.5664C443.184 22.9727 443.021 24.2812 442.695 25.4922C442.37 26.6901 441.882 27.7318 441.23 28.6172C440.579 29.4896 439.759 30.1732 438.77 30.668C437.78 31.1497 436.615 31.3906 435.273 31.3906C434.245 31.3906 433.294 31.2474 432.422 30.9609C431.562 30.6615 430.82 30.1992 430.195 29.5742C429.583 28.9362 429.102 28.1224 428.75 27.1328C428.411 26.1302 428.242 24.9258 428.242 23.5195V9.86719H433.867V23.5586C433.867 24.1836 433.939 24.7109 434.082 25.1406C434.238 25.5703 434.453 25.9219 434.727 26.1953C435 26.4688 435.319 26.6641 435.684 26.7812C436.061 26.8984 436.478 26.957 436.934 26.957C438.092 26.957 439.004 26.7227 439.668 26.2539C440.345 25.7852 440.82 25.1471 441.094 24.3398C441.38 23.5195 441.523 22.6081 441.523 21.6055Z" fill="black"/>
</svg>
