<svg width="379" height="25" viewBox="0 0 379 25" fill="none" xmlns="http://www.w3.org/2000/svg">
    <path d="M4.24902 1.22656V19H0.586914V1.22656H4.24902ZM11.3291 8.81934V11.6758H3.24805V8.81934H11.3291ZM12.1836 1.22656V4.09521H3.24805V1.22656H12.1836ZM17.7988 5.79199V19H14.271V5.79199H17.7988ZM14.0513 2.34961C14.0513 1.83691 14.2303 1.41374 14.5884 1.08008C14.9465 0.746419 15.4266 0.57959 16.0288 0.57959C16.6229 0.57959 17.099 0.746419 17.457 1.08008C17.8232 1.41374 18.0063 1.83691 18.0063 2.34961C18.0063 2.8623 17.8232 3.28548 17.457 3.61914C17.099 3.9528 16.6229 4.11963 16.0288 4.11963C15.4266 4.11963 14.9465 3.9528 14.5884 3.61914C14.2303 3.28548 14.0513 2.8623 14.0513 2.34961ZM24.1465 8.61182V19H20.6309V5.79199H23.9268L24.1465 8.61182ZM23.6338 11.9321H22.6816C22.6816 10.9556 22.8078 10.0767 23.0601 9.29541C23.3123 8.50602 23.6663 7.83464 24.1221 7.28125C24.5778 6.71973 25.119 6.29248 25.7456 5.99951C26.3804 5.6984 27.0884 5.54785 27.8696 5.54785C28.4881 5.54785 29.0537 5.63737 29.5664 5.81641C30.0791 5.99544 30.5186 6.28027 30.8848 6.6709C31.2591 7.06152 31.5439 7.57829 31.7393 8.22119C31.9427 8.8641 32.0444 9.64941 32.0444 10.5771V19H28.5044V10.5649C28.5044 9.979 28.423 9.52327 28.2603 9.19775C28.0975 8.87223 27.8574 8.64437 27.54 8.51416C27.2308 8.37581 26.8483 8.30664 26.3926 8.30664C25.9206 8.30664 25.5096 8.40023 25.1597 8.5874C24.8179 8.77458 24.533 9.03499 24.3052 9.36865C24.0854 9.69417 23.9186 10.0767 23.8047 10.5161C23.6908 10.9556 23.6338 11.4276 23.6338 11.9321ZM42.5181 16.1191V0.25H46.0581V19H42.8721L42.5181 16.1191ZM34.1685 12.5547V12.2983C34.1685 11.2892 34.2824 10.3737 34.5103 9.55176C34.7381 8.72168 35.0718 8.0096 35.5112 7.41553C35.9507 6.82145 36.4919 6.36165 37.1348 6.03613C37.7777 5.71061 38.5101 5.54785 39.332 5.54785C40.1051 5.54785 40.7806 5.71061 41.3584 6.03613C41.9443 6.36165 42.4408 6.82552 42.8477 7.42773C43.2627 8.02181 43.5964 8.72575 43.8486 9.53955C44.1009 10.3452 44.284 11.2282 44.3979 12.1885V12.75C44.284 13.6696 44.1009 14.5241 43.8486 15.3135C43.5964 16.1029 43.2627 16.7946 42.8477 17.3887C42.4408 17.9746 41.9443 18.4303 41.3584 18.7559C40.7725 19.0814 40.0889 19.2441 39.3076 19.2441C38.4857 19.2441 37.7533 19.0773 37.1104 18.7437C36.4756 18.41 35.9385 17.9421 35.499 17.3398C35.0677 16.7376 34.7381 16.0296 34.5103 15.2158C34.2824 14.402 34.1685 13.515 34.1685 12.5547ZM37.6841 12.2983V12.5547C37.6841 13.0999 37.7248 13.6086 37.8062 14.0806C37.8957 14.5526 38.0381 14.9717 38.2334 15.3379C38.4368 15.696 38.6973 15.9767 39.0146 16.1802C39.3402 16.3755 39.7349 16.4731 40.1987 16.4731C40.8009 16.4731 41.2974 16.3389 41.688 16.0703C42.0786 15.7936 42.3757 15.4152 42.5791 14.9351C42.7907 14.4549 42.9128 13.9015 42.9453 13.2749V11.6758C42.9209 11.1631 42.8477 10.7033 42.7256 10.2964C42.6117 9.88135 42.4408 9.52734 42.2129 9.23438C41.9932 8.94141 41.7165 8.71354 41.3828 8.55078C41.0573 8.38802 40.6707 8.30664 40.2231 8.30664C39.7674 8.30664 39.3768 8.41243 39.0513 8.62402C38.7257 8.82747 38.4613 9.10824 38.2578 9.46631C38.0625 9.82438 37.916 10.2476 37.8184 10.7358C37.7288 11.216 37.6841 11.7368 37.6841 12.2983ZM62.1592 16.0215V10.1377C62.1592 9.71452 62.09 9.35238 61.9517 9.05127C61.8133 8.74202 61.5977 8.50195 61.3047 8.33105C61.0199 8.16016 60.6496 8.07471 60.1938 8.07471C59.8032 8.07471 59.4655 8.14388 59.1807 8.28223C58.8958 8.41243 58.6761 8.60368 58.5215 8.85596C58.3669 9.1001 58.2896 9.389 58.2896 9.72266H54.7739C54.7739 9.16113 54.9041 8.62809 55.1646 8.12354C55.425 7.61898 55.8034 7.17546 56.2998 6.79297C56.7962 6.40234 57.3862 6.09717 58.0698 5.87744C58.7616 5.65771 59.5347 5.54785 60.3892 5.54785C61.4146 5.54785 62.326 5.71875 63.1235 6.06055C63.9211 6.40234 64.5477 6.91504 65.0034 7.59863C65.4673 8.28223 65.6992 9.13672 65.6992 10.1621V15.814C65.6992 16.5382 65.744 17.1323 65.8335 17.5962C65.923 18.0519 66.0532 18.4507 66.2241 18.7925V19H62.6719C62.501 18.6419 62.3708 18.1943 62.2812 17.6572C62.1999 17.112 62.1592 16.5667 62.1592 16.0215ZM62.623 10.9556L62.6475 12.9453H60.6821C60.2183 12.9453 59.8154 12.9982 59.4736 13.104C59.1318 13.2098 58.8511 13.3604 58.6313 13.5557C58.4116 13.7428 58.2489 13.9626 58.1431 14.2148C58.0454 14.4671 57.9966 14.7438 57.9966 15.0449C57.9966 15.346 58.0658 15.6187 58.2041 15.8628C58.3424 16.0988 58.5418 16.286 58.8022 16.4243C59.0627 16.5545 59.3678 16.6196 59.7178 16.6196C60.2467 16.6196 60.7065 16.5138 61.0972 16.3022C61.4878 16.0907 61.7889 15.8302 62.0005 15.521C62.2202 15.2118 62.3341 14.9188 62.3423 14.6421L63.27 16.1313C63.1398 16.465 62.9608 16.8109 62.7329 17.1689C62.5132 17.527 62.2324 17.8647 61.8906 18.1821C61.5488 18.4914 61.1379 18.7477 60.6577 18.9512C60.1776 19.1465 59.6079 19.2441 58.9487 19.2441C58.1105 19.2441 57.3496 19.0773 56.666 18.7437C55.9906 18.4019 55.4535 17.9339 55.0547 17.3398C54.6641 16.7376 54.4688 16.054 54.4688 15.2891C54.4688 14.5973 54.599 13.9829 54.8594 13.4458C55.1198 12.9087 55.5023 12.457 56.0068 12.0908C56.5195 11.7165 57.1584 11.4357 57.9233 11.2485C58.6883 11.0532 59.5754 10.9556 60.5845 10.9556H62.623Z" fill="black"/>
    <path d="M81.7759 15.3501C81.7759 15.0978 81.7026 14.87 81.5562 14.6665C81.4097 14.4631 81.137 14.2759 80.7383 14.105C80.3477 13.9259 79.7821 13.7632 79.0415 13.6167C78.3742 13.4702 77.7516 13.2871 77.1738 13.0674C76.6042 12.8395 76.1077 12.5669 75.6846 12.2495C75.2695 11.9321 74.944 11.5578 74.708 11.1265C74.472 10.687 74.354 10.1865 74.354 9.625C74.354 9.07161 74.472 8.55078 74.708 8.0625C74.9521 7.57422 75.298 7.1429 75.7456 6.76855C76.2013 6.38607 76.7547 6.08903 77.4058 5.87744C78.0649 5.65771 78.8055 5.54785 79.6274 5.54785C80.7749 5.54785 81.7596 5.73096 82.5815 6.09717C83.4116 6.46338 84.0464 6.96794 84.4858 7.61084C84.9334 8.24561 85.1572 8.96989 85.1572 9.78369H81.6416C81.6416 9.44189 81.5684 9.13672 81.4219 8.86816C81.2835 8.59147 81.0638 8.37581 80.7627 8.22119C80.4697 8.05843 80.0872 7.97705 79.6152 7.97705C79.2246 7.97705 78.8869 8.04622 78.6021 8.18457C78.3172 8.31478 78.0975 8.49382 77.9429 8.72168C77.7964 8.94141 77.7231 9.18555 77.7231 9.4541C77.7231 9.65755 77.7638 9.84066 77.8452 10.0034C77.9347 10.158 78.0771 10.3005 78.2725 10.4307C78.4678 10.5609 78.7201 10.6829 79.0293 10.7969C79.3467 10.9027 79.7373 11.0003 80.2012 11.0898C81.1533 11.2852 82.0037 11.5415 82.7524 11.8589C83.5011 12.1681 84.0952 12.5913 84.5347 13.1284C84.9741 13.6574 85.1938 14.3532 85.1938 15.2158C85.1938 15.8018 85.0636 16.3389 84.8032 16.8271C84.5428 17.3154 84.1685 17.7427 83.6802 18.1089C83.1919 18.467 82.606 18.7477 81.9224 18.9512C81.2469 19.1465 80.486 19.2441 79.6396 19.2441C78.4108 19.2441 77.3691 19.0244 76.5146 18.585C75.6683 18.1455 75.0254 17.5881 74.5859 16.9126C74.1546 16.229 73.939 15.5291 73.939 14.813H77.2715C77.2878 15.2931 77.4098 15.6797 77.6377 15.9727C77.8737 16.2656 78.1707 16.4772 78.5288 16.6074C78.895 16.7376 79.2897 16.8027 79.7129 16.8027C80.1686 16.8027 80.547 16.7417 80.8481 16.6196C81.1493 16.4894 81.3771 16.3185 81.5317 16.1069C81.6945 15.8872 81.7759 15.6349 81.7759 15.3501ZM95.2891 15.8384V5.79199H98.8047V19H95.4966L95.2891 15.8384ZM95.6797 13.1284L96.7173 13.104C96.7173 13.9829 96.6156 14.8008 96.4121 15.5576C96.2087 16.3063 95.9035 16.9574 95.4966 17.5107C95.0897 18.056 94.577 18.4832 93.9585 18.7925C93.34 19.0936 92.6117 19.2441 91.7734 19.2441C91.1305 19.2441 90.5365 19.1546 89.9912 18.9756C89.4541 18.7884 88.9902 18.4995 88.5996 18.1089C88.2171 17.7101 87.916 17.2015 87.6963 16.583C87.4847 15.9564 87.3789 15.2036 87.3789 14.3247V5.79199H90.8945V14.3491C90.8945 14.7397 90.9393 15.0693 91.0288 15.3379C91.1265 15.6064 91.2607 15.8262 91.4316 15.9971C91.6025 16.168 91.8019 16.29 92.0298 16.3633C92.2658 16.4365 92.5262 16.4731 92.811 16.4731C93.5353 16.4731 94.105 16.3267 94.52 16.0337C94.9432 15.7407 95.2402 15.342 95.4111 14.8374C95.5902 14.3247 95.6797 13.755 95.6797 13.1284ZM105.201 5.79199V19H101.673V5.79199H105.201ZM101.454 2.34961C101.454 1.83691 101.633 1.41374 101.991 1.08008C102.349 0.746419 102.829 0.57959 103.431 0.57959C104.025 0.57959 104.501 0.746419 104.859 1.08008C105.226 1.41374 105.409 1.83691 105.409 2.34961C105.409 2.8623 105.226 3.28548 104.859 3.61914C104.501 3.9528 104.025 4.11963 103.431 4.11963C102.829 4.11963 102.349 3.9528 101.991 3.61914C101.633 3.28548 101.454 2.8623 101.454 2.34961ZM114.576 5.79199V8.28223H106.886V5.79199H114.576ZM108.79 2.53271H112.306V15.0205C112.306 15.403 112.354 15.696 112.452 15.8994C112.558 16.1029 112.713 16.2453 112.916 16.3267C113.119 16.3999 113.376 16.4365 113.685 16.4365C113.905 16.4365 114.1 16.4284 114.271 16.4121C114.45 16.3877 114.601 16.3633 114.723 16.3389L114.735 18.9268C114.434 19.0244 114.108 19.1017 113.758 19.1587C113.408 19.2157 113.022 19.2441 112.599 19.2441C111.826 19.2441 111.15 19.118 110.572 18.8657C110.003 18.6053 109.563 18.1903 109.254 17.6206C108.945 17.0509 108.79 16.3022 108.79 15.3745V2.53271ZM123.707 16.0215V10.1377C123.707 9.71452 123.638 9.35238 123.5 9.05127C123.361 8.74202 123.146 8.50195 122.853 8.33105C122.568 8.16016 122.197 8.07471 121.742 8.07471C121.351 8.07471 121.013 8.14388 120.729 8.28223C120.444 8.41243 120.224 8.60368 120.069 8.85596C119.915 9.1001 119.837 9.389 119.837 9.72266H116.322C116.322 9.16113 116.452 8.62809 116.712 8.12354C116.973 7.61898 117.351 7.17546 117.848 6.79297C118.344 6.40234 118.934 6.09717 119.618 5.87744C120.309 5.65771 121.083 5.54785 121.937 5.54785C122.962 5.54785 123.874 5.71875 124.671 6.06055C125.469 6.40234 126.096 6.91504 126.551 7.59863C127.015 8.28223 127.247 9.13672 127.247 10.1621V15.814C127.247 16.5382 127.292 17.1323 127.381 17.5962C127.471 18.0519 127.601 18.4507 127.772 18.7925V19H124.22C124.049 18.6419 123.919 18.1943 123.829 17.6572C123.748 17.112 123.707 16.5667 123.707 16.0215ZM124.171 10.9556L124.195 12.9453H122.23C121.766 12.9453 121.363 12.9982 121.021 13.104C120.68 13.2098 120.399 13.3604 120.179 13.5557C119.959 13.7428 119.797 13.9626 119.691 14.2148C119.593 14.4671 119.544 14.7438 119.544 15.0449C119.544 15.346 119.614 15.6187 119.752 15.8628C119.89 16.0988 120.09 16.286 120.35 16.4243C120.611 16.5545 120.916 16.6196 121.266 16.6196C121.795 16.6196 122.254 16.5138 122.645 16.3022C123.036 16.0907 123.337 15.8302 123.548 15.521C123.768 15.2118 123.882 14.9188 123.89 14.6421L124.818 16.1313C124.688 16.465 124.509 16.8109 124.281 17.1689C124.061 17.527 123.78 17.8647 123.438 18.1821C123.097 18.4914 122.686 18.7477 122.206 18.9512C121.725 19.1465 121.156 19.2441 120.497 19.2441C119.658 19.2441 118.897 19.0773 118.214 18.7437C117.538 18.4019 117.001 17.9339 116.603 17.3398C116.212 16.7376 116.017 16.054 116.017 15.2891C116.017 14.5973 116.147 13.9829 116.407 13.4458C116.668 12.9087 117.05 12.457 117.555 12.0908C118.067 11.7165 118.706 11.4357 119.471 11.2485C120.236 11.0532 121.123 10.9556 122.132 10.9556H124.171ZM129.957 0.25H133.473V15.9727L133.119 19H129.957V0.25ZM141.834 12.2617V12.5181C141.834 13.5028 141.729 14.4061 141.517 15.228C141.314 16.05 140.996 16.762 140.565 17.3643C140.134 17.9583 139.597 18.4222 138.954 18.7559C138.319 19.0814 137.57 19.2441 136.708 19.2441C135.902 19.2441 135.202 19.0814 134.608 18.7559C134.022 18.4303 133.53 17.9705 133.131 17.3765C132.732 16.7824 132.411 16.0866 132.167 15.2891C131.922 14.4915 131.739 13.6208 131.617 12.6768V12.1152C131.739 11.1712 131.922 10.3005 132.167 9.50293C132.411 8.7054 132.732 8.0096 133.131 7.41553C133.53 6.82145 134.022 6.36165 134.608 6.03613C135.194 5.71061 135.886 5.54785 136.683 5.54785C137.554 5.54785 138.311 5.71468 138.954 6.04834C139.605 6.37386 140.142 6.83773 140.565 7.43994C140.996 8.03402 141.314 8.74202 141.517 9.56396C141.729 10.3778 141.834 11.277 141.834 12.2617ZM138.319 12.5181V12.2617C138.319 11.7246 138.278 11.2201 138.197 10.748C138.124 10.2679 137.993 9.8488 137.806 9.49072C137.619 9.12451 137.363 8.83561 137.037 8.62402C136.72 8.41243 136.309 8.30664 135.804 8.30664C135.324 8.30664 134.917 8.38802 134.583 8.55078C134.25 8.71354 133.973 8.94141 133.753 9.23438C133.542 9.52734 133.383 9.87728 133.277 10.2842C133.172 10.6829 133.106 11.1224 133.082 11.6025V13.2017C133.106 13.8446 133.212 14.4142 133.399 14.9106C133.595 15.3989 133.888 15.7855 134.278 16.0703C134.677 16.347 135.194 16.4854 135.829 16.4854C136.325 16.4854 136.736 16.3877 137.062 16.1924C137.387 15.9971 137.639 15.7204 137.818 15.3623C138.006 15.0042 138.136 14.5851 138.209 14.105C138.282 13.6167 138.319 13.0877 138.319 12.5181ZM147.73 0.25V19H144.203V0.25H147.73ZM156.715 19.2441C155.689 19.2441 154.77 19.0814 153.956 18.7559C153.142 18.4222 152.451 17.9624 151.881 17.3765C151.319 16.7905 150.888 16.111 150.587 15.3379C150.286 14.5566 150.135 13.7266 150.135 12.8477V12.3594C150.135 11.3584 150.278 10.4429 150.562 9.61279C150.847 8.78271 151.254 8.0625 151.783 7.45215C152.32 6.8418 152.971 6.37386 153.736 6.04834C154.501 5.71468 155.364 5.54785 156.324 5.54785C157.26 5.54785 158.09 5.70247 158.814 6.01172C159.539 6.32096 160.145 6.76042 160.633 7.33008C161.13 7.89974 161.504 8.58333 161.756 9.38086C162.009 10.1702 162.135 11.0492 162.135 12.0176V13.4824H151.637V11.1387H158.68V10.8701C158.68 10.3818 158.591 9.94645 158.412 9.56396C158.241 9.17334 157.98 8.8641 157.63 8.63623C157.28 8.40837 156.833 8.29443 156.288 8.29443C155.824 8.29443 155.425 8.39616 155.091 8.59961C154.758 8.80306 154.485 9.08789 154.273 9.4541C154.07 9.82031 153.915 10.2516 153.81 10.748C153.712 11.2363 153.663 11.7734 153.663 12.3594V12.8477C153.663 13.3766 153.736 13.8649 153.883 14.3125C154.037 14.7601 154.253 15.1466 154.53 15.4722C154.815 15.7977 155.156 16.05 155.555 16.229C155.962 16.408 156.422 16.4976 156.935 16.4976C157.569 16.4976 158.159 16.3755 158.705 16.1313C159.258 15.8791 159.734 15.5007 160.133 14.9961L161.842 16.8516C161.565 17.2503 161.187 17.6328 160.707 17.999C160.235 18.3652 159.665 18.6663 158.998 18.9023C158.33 19.1302 157.569 19.2441 156.715 19.2441ZM174.073 5.79199V19H170.545V5.79199H174.073ZM170.326 2.34961C170.326 1.83691 170.505 1.41374 170.863 1.08008C171.221 0.746419 171.701 0.57959 172.303 0.57959C172.897 0.57959 173.373 0.746419 173.731 1.08008C174.098 1.41374 174.281 1.83691 174.281 2.34961C174.281 2.8623 174.098 3.28548 173.731 3.61914C173.373 3.9528 172.897 4.11963 172.303 4.11963C171.701 4.11963 171.221 3.9528 170.863 3.61914C170.505 3.28548 170.326 2.8623 170.326 2.34961ZM180.421 8.61182V19H176.905V5.79199H180.201L180.421 8.61182ZM179.908 11.9321H178.956C178.956 10.9556 179.082 10.0767 179.334 9.29541C179.587 8.50602 179.941 7.83464 180.396 7.28125C180.852 6.71973 181.393 6.29248 182.02 5.99951C182.655 5.6984 183.363 5.54785 184.144 5.54785C184.763 5.54785 185.328 5.63737 185.841 5.81641C186.354 5.99544 186.793 6.28027 187.159 6.6709C187.534 7.06152 187.818 7.57829 188.014 8.22119C188.217 8.8641 188.319 9.64941 188.319 10.5771V19H184.779V10.5649C184.779 9.979 184.697 9.52327 184.535 9.19775C184.372 8.87223 184.132 8.64437 183.814 8.51416C183.505 8.37581 183.123 8.30664 182.667 8.30664C182.195 8.30664 181.784 8.40023 181.434 8.5874C181.092 8.77458 180.807 9.03499 180.58 9.36865C180.36 9.69417 180.193 10.0767 180.079 10.5161C179.965 10.9556 179.908 11.4276 179.908 11.9321ZM197.462 5.79199V8.28223H189.771V5.79199H197.462ZM191.676 2.53271H195.191V15.0205C195.191 15.403 195.24 15.696 195.338 15.8994C195.444 16.1029 195.598 16.2453 195.802 16.3267C196.005 16.3999 196.262 16.4365 196.571 16.4365C196.791 16.4365 196.986 16.4284 197.157 16.4121C197.336 16.3877 197.486 16.3633 197.608 16.3389L197.621 18.9268C197.319 19.0244 196.994 19.1017 196.644 19.1587C196.294 19.2157 195.908 19.2441 195.484 19.2441C194.711 19.2441 194.036 19.118 193.458 18.8657C192.888 18.6053 192.449 18.1903 192.14 17.6206C191.83 17.0509 191.676 16.3022 191.676 15.3745V2.53271ZM205.543 19.2441C204.518 19.2441 203.598 19.0814 202.784 18.7559C201.97 18.4222 201.279 17.9624 200.709 17.3765C200.147 16.7905 199.716 16.111 199.415 15.3379C199.114 14.5566 198.963 13.7266 198.963 12.8477V12.3594C198.963 11.3584 199.106 10.4429 199.391 9.61279C199.675 8.78271 200.082 8.0625 200.611 7.45215C201.148 6.8418 201.799 6.37386 202.564 6.04834C203.329 5.71468 204.192 5.54785 205.152 5.54785C206.088 5.54785 206.918 5.70247 207.643 6.01172C208.367 6.32096 208.973 6.76042 209.461 7.33008C209.958 7.89974 210.332 8.58333 210.584 9.38086C210.837 10.1702 210.963 11.0492 210.963 12.0176V13.4824H200.465V11.1387H207.508V10.8701C207.508 10.3818 207.419 9.94645 207.24 9.56396C207.069 9.17334 206.808 8.8641 206.458 8.63623C206.109 8.40837 205.661 8.29443 205.116 8.29443C204.652 8.29443 204.253 8.39616 203.919 8.59961C203.586 8.80306 203.313 9.08789 203.102 9.4541C202.898 9.82031 202.743 10.2516 202.638 10.748C202.54 11.2363 202.491 11.7734 202.491 12.3594V12.8477C202.491 13.3766 202.564 13.8649 202.711 14.3125C202.866 14.7601 203.081 15.1466 203.358 15.4722C203.643 15.7977 203.985 16.05 204.383 16.229C204.79 16.408 205.25 16.4976 205.763 16.4976C206.397 16.4976 206.987 16.3755 207.533 16.1313C208.086 15.8791 208.562 15.5007 208.961 14.9961L210.67 16.8516C210.393 17.2503 210.015 17.6328 209.535 17.999C209.063 18.3652 208.493 18.6663 207.826 18.9023C207.158 19.1302 206.397 19.2441 205.543 19.2441ZM216.48 8.67285V19H212.965V5.79199H216.273L216.48 8.67285ZM220.46 5.70654L220.399 8.96582C220.228 8.94141 220.021 8.92106 219.776 8.90479C219.54 8.88037 219.325 8.86816 219.129 8.86816C218.633 8.86816 218.202 8.93327 217.835 9.06348C217.477 9.18555 217.176 9.36865 216.932 9.61279C216.696 9.85693 216.517 10.154 216.395 10.5039C216.281 10.8538 216.216 11.2526 216.2 11.7002L215.492 11.4805C215.492 10.626 215.577 9.84066 215.748 9.12451C215.919 8.40023 216.167 7.76953 216.493 7.23242C216.826 6.69531 217.233 6.28027 217.713 5.9873C218.194 5.69434 218.743 5.54785 219.361 5.54785C219.557 5.54785 219.756 5.56413 219.959 5.59668C220.163 5.62109 220.33 5.65771 220.46 5.70654ZM225.562 8.61182V19H222.047V5.79199H225.343L225.562 8.61182ZM225.05 11.9321H224.098C224.098 10.9556 224.224 10.0767 224.476 9.29541C224.728 8.50602 225.082 7.83464 225.538 7.28125C225.994 6.71973 226.535 6.29248 227.162 5.99951C227.796 5.6984 228.504 5.54785 229.286 5.54785C229.904 5.54785 230.47 5.63737 230.982 5.81641C231.495 5.99544 231.935 6.28027 232.301 6.6709C232.675 7.06152 232.96 7.57829 233.155 8.22119C233.359 8.8641 233.46 9.64941 233.46 10.5771V19H229.92V10.5649C229.92 9.979 229.839 9.52327 229.676 9.19775C229.514 8.87223 229.273 8.64437 228.956 8.51416C228.647 8.37581 228.264 8.30664 227.809 8.30664C227.337 8.30664 226.926 8.40023 226.576 8.5874C226.234 8.77458 225.949 9.03499 225.721 9.36865C225.501 9.69417 225.335 10.0767 225.221 10.5161C225.107 10.9556 225.05 11.4276 225.05 11.9321ZM243.275 15.3501C243.275 15.0978 243.202 14.87 243.055 14.6665C242.909 14.4631 242.636 14.2759 242.237 14.105C241.847 13.9259 241.281 13.7632 240.541 13.6167C239.873 13.4702 239.251 13.2871 238.673 13.0674C238.103 12.8395 237.607 12.5669 237.184 12.2495C236.769 11.9321 236.443 11.5578 236.207 11.1265C235.971 10.687 235.853 10.1865 235.853 9.625C235.853 9.07161 235.971 8.55078 236.207 8.0625C236.451 7.57422 236.797 7.1429 237.245 6.76855C237.7 6.38607 238.254 6.08903 238.905 5.87744C239.564 5.65771 240.305 5.54785 241.126 5.54785C242.274 5.54785 243.259 5.73096 244.081 6.09717C244.911 6.46338 245.545 6.96794 245.985 7.61084C246.432 8.24561 246.656 8.96989 246.656 9.78369H243.141C243.141 9.44189 243.067 9.13672 242.921 8.86816C242.783 8.59147 242.563 8.37581 242.262 8.22119C241.969 8.05843 241.586 7.97705 241.114 7.97705C240.724 7.97705 240.386 8.04622 240.101 8.18457C239.816 8.31478 239.597 8.49382 239.442 8.72168C239.295 8.94141 239.222 9.18555 239.222 9.4541C239.222 9.65755 239.263 9.84066 239.344 10.0034C239.434 10.158 239.576 10.3005 239.771 10.4307C239.967 10.5609 240.219 10.6829 240.528 10.7969C240.846 10.9027 241.236 11.0003 241.7 11.0898C242.652 11.2852 243.503 11.5415 244.251 11.8589C245 12.1681 245.594 12.5913 246.034 13.1284C246.473 13.6574 246.693 14.3532 246.693 15.2158C246.693 15.8018 246.563 16.3389 246.302 16.8271C246.042 17.3154 245.667 17.7427 245.179 18.1089C244.691 18.467 244.105 18.7477 243.421 18.9512C242.746 19.1465 241.985 19.2441 241.139 19.2441C239.91 19.2441 238.868 19.0244 238.014 18.585C237.167 18.1455 236.524 17.5881 236.085 16.9126C235.654 16.229 235.438 15.5291 235.438 14.813H238.771C238.787 15.2931 238.909 15.6797 239.137 15.9727C239.373 16.2656 239.67 16.4772 240.028 16.6074C240.394 16.7376 240.789 16.8027 241.212 16.8027C241.668 16.8027 242.046 16.7417 242.347 16.6196C242.648 16.4894 242.876 16.3185 243.031 16.1069C243.194 15.8872 243.275 15.6349 243.275 15.3501ZM252.406 0.25V19H248.89V0.25H252.406ZM251.905 11.9321H250.941C250.949 11.0125 251.071 10.1662 251.307 9.39307C251.543 8.61182 251.881 7.93636 252.32 7.3667C252.76 6.7889 253.285 6.34131 253.895 6.02393C254.514 5.70654 255.197 5.54785 255.946 5.54785C256.597 5.54785 257.187 5.64144 257.716 5.82861C258.253 6.00765 258.713 6.30062 259.095 6.70752C259.486 7.10628 259.787 7.63118 259.999 8.28223C260.21 8.93327 260.316 9.72266 260.316 10.6504V19H256.776V10.626C256.776 10.04 256.69 9.58024 256.52 9.24658C256.357 8.90479 256.117 8.66471 255.799 8.52637C255.49 8.37988 255.108 8.30664 254.652 8.30664C254.147 8.30664 253.716 8.40023 253.358 8.5874C253.008 8.77458 252.727 9.03499 252.516 9.36865C252.304 9.69417 252.149 10.0767 252.052 10.5161C251.954 10.9556 251.905 11.4276 251.905 11.9321ZM266.7 5.79199V19H263.172V5.79199H266.7ZM262.953 2.34961C262.953 1.83691 263.132 1.41374 263.49 1.08008C263.848 0.746419 264.328 0.57959 264.93 0.57959C265.524 0.57959 266 0.746419 266.358 1.08008C266.725 1.41374 266.908 1.83691 266.908 2.34961C266.908 2.8623 266.725 3.28548 266.358 3.61914C266 3.9528 265.524 4.11963 264.93 4.11963C264.328 4.11963 263.848 3.9528 263.49 3.61914C263.132 3.28548 262.953 2.8623 262.953 2.34961ZM273.121 8.33105V24.0781H269.605V5.79199H272.865L273.121 8.33105ZM281.483 12.2495V12.5059C281.483 13.4661 281.369 14.3573 281.141 15.1792C280.921 16.0011 280.596 16.7173 280.165 17.3276C279.733 17.9299 279.196 18.4019 278.553 18.7437C277.918 19.0773 277.186 19.2441 276.356 19.2441C275.55 19.2441 274.85 19.0814 274.256 18.7559C273.662 18.4303 273.162 17.9746 272.755 17.3887C272.356 16.7946 272.035 16.1069 271.791 15.3257C271.546 14.5444 271.359 13.7062 271.229 12.811V12.1396C271.359 11.1794 271.546 10.3005 271.791 9.50293C272.035 8.69727 272.356 8.00146 272.755 7.41553C273.162 6.82145 273.658 6.36165 274.244 6.03613C274.838 5.71061 275.534 5.54785 276.332 5.54785C277.17 5.54785 277.906 5.70654 278.541 6.02393C279.184 6.34131 279.721 6.79704 280.152 7.39111C280.592 7.98519 280.921 8.6932 281.141 9.51514C281.369 10.3371 281.483 11.2485 281.483 12.2495ZM277.955 12.5059V12.2495C277.955 11.688 277.906 11.1712 277.809 10.6992C277.719 10.2191 277.573 9.79997 277.369 9.44189C277.174 9.08382 276.913 8.80713 276.588 8.61182C276.271 8.40837 275.884 8.30664 275.428 8.30664C274.948 8.30664 274.537 8.38395 274.195 8.53857C273.862 8.6932 273.589 8.91699 273.377 9.20996C273.166 9.50293 273.007 9.85286 272.901 10.2598C272.796 10.6667 272.73 11.1265 272.706 11.6392V13.3359C272.747 13.9382 272.861 14.4793 273.048 14.9595C273.235 15.4315 273.524 15.8058 273.915 16.0825C274.305 16.3592 274.818 16.4976 275.453 16.4976C275.917 16.4976 276.307 16.3958 276.625 16.1924C276.942 15.9808 277.198 15.6919 277.394 15.3257C277.597 14.9595 277.739 14.5363 277.821 14.0562C277.91 13.576 277.955 13.0592 277.955 12.5059ZM293.409 8.33105V24.0781H289.894V5.79199H293.153L293.409 8.33105ZM301.771 12.2495V12.5059C301.771 13.4661 301.657 14.3573 301.429 15.1792C301.209 16.0011 300.884 16.7173 300.453 17.3276C300.021 17.9299 299.484 18.4019 298.841 18.7437C298.207 19.0773 297.474 19.2441 296.644 19.2441C295.838 19.2441 295.139 19.0814 294.544 18.7559C293.95 18.4303 293.45 17.9746 293.043 17.3887C292.644 16.7946 292.323 16.1069 292.079 15.3257C291.834 14.5444 291.647 13.7062 291.517 12.811V12.1396C291.647 11.1794 291.834 10.3005 292.079 9.50293C292.323 8.69727 292.644 8.00146 293.043 7.41553C293.45 6.82145 293.946 6.36165 294.532 6.03613C295.126 5.71061 295.822 5.54785 296.62 5.54785C297.458 5.54785 298.194 5.70654 298.829 6.02393C299.472 6.34131 300.009 6.79704 300.44 7.39111C300.88 7.98519 301.209 8.6932 301.429 9.51514C301.657 10.3371 301.771 11.2485 301.771 12.2495ZM298.243 12.5059V12.2495C298.243 11.688 298.194 11.1712 298.097 10.6992C298.007 10.2191 297.861 9.79997 297.657 9.44189C297.462 9.08382 297.201 8.80713 296.876 8.61182C296.559 8.40837 296.172 8.30664 295.716 8.30664C295.236 8.30664 294.825 8.38395 294.483 8.53857C294.15 8.6932 293.877 8.91699 293.666 9.20996C293.454 9.50293 293.295 9.85286 293.189 10.2598C293.084 10.6667 293.019 11.1265 292.994 11.6392V13.3359C293.035 13.9382 293.149 14.4793 293.336 14.9595C293.523 15.4315 293.812 15.8058 294.203 16.0825C294.593 16.3592 295.106 16.4976 295.741 16.4976C296.205 16.4976 296.595 16.3958 296.913 16.1924C297.23 15.9808 297.486 15.6919 297.682 15.3257C297.885 14.9595 298.028 14.5363 298.109 14.0562C298.198 13.576 298.243 13.0592 298.243 12.5059ZM303.395 12.5303V12.2739C303.395 11.3055 303.533 10.4144 303.81 9.60059C304.086 8.77865 304.489 8.06657 305.018 7.46436C305.547 6.86214 306.198 6.39421 306.971 6.06055C307.744 5.71875 308.631 5.54785 309.632 5.54785C310.633 5.54785 311.524 5.71875 312.306 6.06055C313.087 6.39421 313.742 6.86214 314.271 7.46436C314.808 8.06657 315.215 8.77865 315.492 9.60059C315.768 10.4144 315.907 11.3055 315.907 12.2739V12.5303C315.907 13.4906 315.768 14.3817 315.492 15.2036C315.215 16.0174 314.808 16.7295 314.271 17.3398C313.742 17.9421 313.091 18.41 312.318 18.7437C311.545 19.0773 310.658 19.2441 309.657 19.2441C308.656 19.2441 307.765 19.0773 306.983 18.7437C306.21 18.41 305.555 17.9421 305.018 17.3398C304.489 16.7295 304.086 16.0174 303.81 15.2036C303.533 14.3817 303.395 13.4906 303.395 12.5303ZM306.91 12.2739V12.5303C306.91 13.0837 306.959 13.6004 307.057 14.0806C307.154 14.5607 307.309 14.9839 307.521 15.3501C307.74 15.7082 308.025 15.9889 308.375 16.1924C308.725 16.3958 309.152 16.4976 309.657 16.4976C310.145 16.4976 310.564 16.3958 310.914 16.1924C311.264 15.9889 311.545 15.7082 311.756 15.3501C311.968 14.9839 312.123 14.5607 312.22 14.0806C312.326 13.6004 312.379 13.0837 312.379 12.5303V12.2739C312.379 11.7368 312.326 11.2323 312.22 10.7603C312.123 10.2801 311.964 9.85693 311.744 9.49072C311.533 9.11637 311.252 8.8234 310.902 8.61182C310.552 8.40023 310.129 8.29443 309.632 8.29443C309.136 8.29443 308.713 8.40023 308.363 8.61182C308.021 8.8234 307.74 9.11637 307.521 9.49072C307.309 9.85693 307.154 10.2801 307.057 10.7603C306.959 11.2323 306.91 11.7368 306.91 12.2739ZM325.208 15.3501C325.208 15.0978 325.135 14.87 324.989 14.6665C324.842 14.4631 324.57 14.2759 324.171 14.105C323.78 13.9259 323.215 13.7632 322.474 13.6167C321.807 13.4702 321.184 13.2871 320.606 13.0674C320.037 12.8395 319.54 12.5669 319.117 12.2495C318.702 11.9321 318.377 11.5578 318.141 11.1265C317.905 10.687 317.787 10.1865 317.787 9.625C317.787 9.07161 317.905 8.55078 318.141 8.0625C318.385 7.57422 318.731 7.1429 319.178 6.76855C319.634 6.38607 320.187 6.08903 320.838 5.87744C321.498 5.65771 322.238 5.54785 323.06 5.54785C324.208 5.54785 325.192 5.73096 326.014 6.09717C326.844 6.46338 327.479 6.96794 327.918 7.61084C328.366 8.24561 328.59 8.96989 328.59 9.78369H325.074C325.074 9.44189 325.001 9.13672 324.854 8.86816C324.716 8.59147 324.496 8.37581 324.195 8.22119C323.902 8.05843 323.52 7.97705 323.048 7.97705C322.657 7.97705 322.319 8.04622 322.035 8.18457C321.75 8.31478 321.53 8.49382 321.375 8.72168C321.229 8.94141 321.156 9.18555 321.156 9.4541C321.156 9.65755 321.196 9.84066 321.278 10.0034C321.367 10.158 321.51 10.3005 321.705 10.4307C321.9 10.5609 322.153 10.6829 322.462 10.7969C322.779 10.9027 323.17 11.0003 323.634 11.0898C324.586 11.2852 325.436 11.5415 326.185 11.8589C326.934 12.1681 327.528 12.5913 327.967 13.1284C328.407 13.6574 328.626 14.3532 328.626 15.2158C328.626 15.8018 328.496 16.3389 328.236 16.8271C327.975 17.3154 327.601 17.7427 327.113 18.1089C326.625 18.467 326.039 18.7477 325.355 18.9512C324.68 19.1465 323.919 19.2441 323.072 19.2441C321.843 19.2441 320.802 19.0244 319.947 18.585C319.101 18.1455 318.458 17.5881 318.019 16.9126C317.587 16.229 317.372 15.5291 317.372 14.813H320.704C320.72 15.2931 320.842 15.6797 321.07 15.9727C321.306 16.2656 321.603 16.4772 321.961 16.6074C322.328 16.7376 322.722 16.8027 323.146 16.8027C323.601 16.8027 323.98 16.7417 324.281 16.6196C324.582 16.4894 324.81 16.3185 324.964 16.1069C325.127 15.8872 325.208 15.6349 325.208 15.3501ZM334.62 5.79199V19H331.092V5.79199H334.62ZM330.873 2.34961C330.873 1.83691 331.052 1.41374 331.41 1.08008C331.768 0.746419 332.248 0.57959 332.85 0.57959C333.444 0.57959 333.92 0.746419 334.278 1.08008C334.645 1.41374 334.828 1.83691 334.828 2.34961C334.828 2.8623 334.645 3.28548 334.278 3.61914C333.92 3.9528 333.444 4.11963 332.85 4.11963C332.248 4.11963 331.768 3.9528 331.41 3.61914C331.052 3.28548 330.873 2.8623 330.873 2.34961ZM343.995 5.79199V8.28223H336.305V5.79199H343.995ZM338.209 2.53271H341.725V15.0205C341.725 15.403 341.773 15.696 341.871 15.8994C341.977 16.1029 342.132 16.2453 342.335 16.3267C342.538 16.3999 342.795 16.4365 343.104 16.4365C343.324 16.4365 343.519 16.4284 343.69 16.4121C343.869 16.3877 344.02 16.3633 344.142 16.3389L344.154 18.9268C343.853 19.0244 343.527 19.1017 343.177 19.1587C342.827 19.2157 342.441 19.2441 342.018 19.2441C341.244 19.2441 340.569 19.118 339.991 18.8657C339.422 18.6053 338.982 18.1903 338.673 17.6206C338.364 17.0509 338.209 16.3022 338.209 15.3745V2.53271ZM349.708 5.79199V19H346.18V5.79199H349.708ZM345.96 2.34961C345.96 1.83691 346.139 1.41374 346.498 1.08008C346.856 0.746419 347.336 0.57959 347.938 0.57959C348.532 0.57959 349.008 0.746419 349.366 1.08008C349.732 1.41374 349.916 1.83691 349.916 2.34961C349.916 2.8623 349.732 3.28548 349.366 3.61914C349.008 3.9528 348.532 4.11963 347.938 4.11963C347.336 4.11963 346.856 3.9528 346.498 3.61914C346.139 3.28548 345.96 2.8623 345.96 2.34961ZM352.052 12.5303V12.2739C352.052 11.3055 352.19 10.4144 352.467 9.60059C352.743 8.77865 353.146 8.06657 353.675 7.46436C354.204 6.86214 354.855 6.39421 355.628 6.06055C356.402 5.71875 357.289 5.54785 358.29 5.54785C359.291 5.54785 360.182 5.71875 360.963 6.06055C361.744 6.39421 362.399 6.86214 362.928 7.46436C363.465 8.06657 363.872 8.77865 364.149 9.60059C364.426 10.4144 364.564 11.3055 364.564 12.2739V12.5303C364.564 13.4906 364.426 14.3817 364.149 15.2036C363.872 16.0174 363.465 16.7295 362.928 17.3398C362.399 17.9421 361.748 18.41 360.975 18.7437C360.202 19.0773 359.315 19.2441 358.314 19.2441C357.313 19.2441 356.422 19.0773 355.641 18.7437C354.868 18.41 354.212 17.9421 353.675 17.3398C353.146 16.7295 352.743 16.0174 352.467 15.2036C352.19 14.3817 352.052 13.4906 352.052 12.5303ZM355.567 12.2739V12.5303C355.567 13.0837 355.616 13.6004 355.714 14.0806C355.812 14.5607 355.966 14.9839 356.178 15.3501C356.397 15.7082 356.682 15.9889 357.032 16.1924C357.382 16.3958 357.809 16.4976 358.314 16.4976C358.802 16.4976 359.221 16.3958 359.571 16.1924C359.921 15.9889 360.202 15.7082 360.414 15.3501C360.625 14.9839 360.78 14.5607 360.877 14.0806C360.983 13.6004 361.036 13.0837 361.036 12.5303V12.2739C361.036 11.7368 360.983 11.2323 360.877 10.7603C360.78 10.2801 360.621 9.85693 360.401 9.49072C360.19 9.11637 359.909 8.8234 359.559 8.61182C359.209 8.40023 358.786 8.29443 358.29 8.29443C357.793 8.29443 357.37 8.40023 357.02 8.61182C356.678 8.8234 356.397 9.11637 356.178 9.49072C355.966 9.85693 355.812 10.2801 355.714 10.7603C355.616 11.2323 355.567 11.7368 355.567 12.2739ZM370.167 8.61182V19H366.651V5.79199H369.947L370.167 8.61182ZM369.654 11.9321H368.702C368.702 10.9556 368.828 10.0767 369.081 9.29541C369.333 8.50602 369.687 7.83464 370.143 7.28125C370.598 6.71973 371.139 6.29248 371.766 5.99951C372.401 5.6984 373.109 5.54785 373.89 5.54785C374.509 5.54785 375.074 5.63737 375.587 5.81641C376.1 5.99544 376.539 6.28027 376.905 6.6709C377.28 7.06152 377.564 7.57829 377.76 8.22119C377.963 8.8641 378.065 9.64941 378.065 10.5771V19H374.525V10.5649C374.525 9.979 374.444 9.52327 374.281 9.19775C374.118 8.87223 373.878 8.64437 373.561 8.51416C373.251 8.37581 372.869 8.30664 372.413 8.30664C371.941 8.30664 371.53 8.40023 371.18 8.5874C370.838 8.77458 370.554 9.03499 370.326 9.36865C370.106 9.69417 369.939 10.0767 369.825 10.5161C369.711 10.9556 369.654 11.4276 369.654 11.9321Z" fill="#AB1F24"/>
</svg>
