<svg width="265" height="36" viewBox="0 0 265 36" fill="none" xmlns="http://www.w3.org/2000/svg">
    <path d="M9.184 1.304V35H0.976V1.304H9.184ZM31.4523 7.928C34.5883 7.928 37.0843 8.952 38.9403 11C40.8283 13.016 41.7723 15.8 41.7723 19.352V35H33.6123V20.456C33.6123 18.664 33.1483 17.272 32.2203 16.28C31.2923 15.288 30.0443 14.792 28.4763 14.792C26.9083 14.792 25.6603 15.288 24.7323 16.28C23.8043 17.272 23.3403 18.664 23.3403 20.456V35H15.1323V8.216H23.3403V11.768C24.1723 10.584 25.2923 9.656 26.7003 8.984C28.1083 8.28 29.6923 7.928 31.4523 7.928ZM62.404 28.04V35H58.228C55.252 35 52.932 34.28 51.268 32.84C49.604 31.368 48.772 28.984 48.772 25.688V15.032H45.508V8.216H48.772V1.688H56.98V8.216H62.356V15.032H56.98V25.784C56.98 26.584 57.172 27.16 57.556 27.512C57.94 27.864 58.58 28.04 59.476 28.04H62.404ZM92.224 21.176C92.224 21.944 92.176 22.744 92.08 23.576H73.504C73.632 25.24 74.16 26.52 75.088 27.416C76.048 28.28 77.216 28.712 78.592 28.712C80.64 28.712 82.064 27.848 82.864 26.12H91.6C91.152 27.88 90.336 29.464 89.152 30.872C88 32.28 86.544 33.384 84.784 34.184C83.024 34.984 81.056 35.384 78.88 35.384C76.256 35.384 73.92 34.824 71.872 33.704C69.824 32.584 68.224 30.984 67.072 28.904C65.92 26.824 65.344 24.392 65.344 21.608C65.344 18.824 65.904 16.392 67.024 14.312C68.176 12.232 69.776 10.632 71.824 9.512C73.872 8.392 76.224 7.832 78.88 7.832C81.472 7.832 83.776 8.376 85.792 9.464C87.808 10.552 89.376 12.104 90.496 14.12C91.648 16.136 92.224 18.488 92.224 21.176ZM83.824 19.016C83.824 17.608 83.344 16.488 82.384 15.656C81.424 14.824 80.224 14.408 78.784 14.408C77.408 14.408 76.24 14.808 75.28 15.608C74.352 16.408 73.776 17.544 73.552 19.016H83.824ZM104.762 12.68C105.722 11.208 106.922 10.056 108.362 9.224C109.802 8.36 111.402 7.928 113.162 7.928V16.616H110.906C108.858 16.616 107.322 17.064 106.298 17.96C105.274 18.824 104.762 20.36 104.762 22.568V35H96.5541V8.216H104.762V12.68ZM133.405 7.928C136.541 7.928 139.037 8.952 140.893 11C142.781 13.016 143.725 15.8 143.725 19.352V35H135.565V20.456C135.565 18.664 135.101 17.272 134.173 16.28C133.245 15.288 131.997 14.792 130.429 14.792C128.861 14.792 127.613 15.288 126.685 16.28C125.757 17.272 125.293 18.664 125.293 20.456V35H117.085V8.216H125.293V11.768C126.125 10.584 127.245 9.656 128.653 8.984C130.061 8.28 131.645 7.928 133.405 7.928Z" fill="black"/>
    <path d="M171.793 35.336C169.329 35.336 167.121 34.936 165.169 34.136C163.217 33.336 161.649 32.152 160.465 30.584C159.313 29.016 158.705 27.128 158.641 24.92H167.377C167.505 26.168 167.937 27.128 168.673 27.8C169.409 28.44 170.369 28.76 171.553 28.76C172.769 28.76 173.729 28.488 174.433 27.944C175.137 27.368 175.489 26.584 175.489 25.592C175.489 24.76 175.201 24.072 174.625 23.528C174.081 22.984 173.393 22.536 172.561 22.184C171.761 21.832 170.609 21.432 169.105 20.984C166.929 20.312 165.153 19.64 163.777 18.968C162.401 18.296 161.217 17.304 160.225 15.992C159.233 14.68 158.737 12.968 158.737 10.856C158.737 7.72 159.873 5.272 162.145 3.512C164.417 1.72 167.377 0.823999 171.025 0.823999C174.737 0.823999 177.729 1.72 180.001 3.512C182.273 5.272 183.489 7.736 183.649 10.904H174.769C174.705 9.816 174.305 8.968 173.569 8.36C172.833 7.72 171.889 7.4 170.737 7.4C169.745 7.4 168.945 7.672 168.337 8.216C167.729 8.728 167.425 9.48 167.425 10.472C167.425 11.56 167.937 12.408 168.961 13.016C169.985 13.624 171.585 14.28 173.761 14.984C175.937 15.72 177.697 16.424 179.041 17.096C180.417 17.768 181.601 18.744 182.593 20.024C183.585 21.304 184.081 22.952 184.081 24.968C184.081 26.888 183.585 28.632 182.593 30.2C181.633 31.768 180.225 33.016 178.369 33.944C176.513 34.872 174.321 35.336 171.793 35.336ZM218.316 1.304V35H210.108V21.128H197.34V35H189.132V1.304H197.34V14.504H210.108V1.304H218.316ZM232.45 1.304V35H224.242V1.304H232.45ZM264.078 12.152C264.078 14.104 263.63 15.896 262.734 17.528C261.838 19.128 260.462 20.424 258.606 21.416C256.75 22.408 254.446 22.904 251.694 22.904H246.606V35H238.398V1.304H251.694C254.382 1.304 256.654 1.768 258.51 2.696C260.366 3.624 261.758 4.904 262.686 6.536C263.614 8.168 264.078 10.04 264.078 12.152ZM251.07 16.376C252.638 16.376 253.806 16.008 254.574 15.272C255.342 14.536 255.726 13.496 255.726 12.152C255.726 10.808 255.342 9.768 254.574 9.032C253.806 8.296 252.638 7.928 251.07 7.928H246.606V16.376H251.07Z" fill="#AB1F24"/>
</svg>
