<svg width="40" height="40" viewBox="0 0 40 40" fill="none" xmlns="http://www.w3.org/2000/svg">
    <path d="M24.275 27.25L27.75 23.8L26.7 22.75L24.275 25.125L23.3 24.15L22.25 25.225L24.275 27.25ZM13 16H25V14H13V16ZM25 30C23.6167 30 22.4377 29.5127 21.463 28.538C20.4877 27.5627 20 26.3833 20 25C20 23.6167 20.4877 22.4373 21.463 21.462C22.4377 20.4873 23.6167 20 25 20C26.3833 20 27.5627 20.4873 28.538 21.462C29.5127 22.4373 30 23.6167 30 25C30 26.3833 29.5127 27.5627 28.538 28.538C27.5627 29.5127 26.3833 30 25 30ZM10 29V12C10 11.45 10.1957 10.979 10.587 10.587C10.979 10.1957 11.45 10 12 10H26C26.55 10 27.021 10.1957 27.413 10.587C27.8043 10.979 28 11.45 28 12V18.675C27.6833 18.525 27.3583 18.4 27.025 18.3C26.6917 18.2 26.35 18.125 26 18.075V12H12V26.05H18.075C18.1583 26.5667 18.2877 27.0583 18.463 27.525C18.6377 27.9917 18.8667 28.4333 19.15 28.85L19 29L17.5 27.5L16 29L14.5 27.5L13 29L11.5 27.5L10 29ZM13 24H18.075C18.125 23.65 18.2 23.3083 18.3 22.975C18.4 22.6417 18.525 22.3167 18.675 22H13V24ZM13 20H20.1C20.7333 19.3833 21.4707 18.8957 22.312 18.537C23.154 18.179 24.05 18 25 18H13V20Z" fill="#0A9500"/>
</svg>
