<svg width="658" height="96" viewBox="0 0 658 96" fill="none" xmlns="http://www.w3.org/2000/svg">
    <path d="M19.501 1.57812V94H0.521484V1.57812H19.501ZM54.0957 39.9814V94H35.8145V25.3184H52.9531L54.0957 39.9814ZM51.4297 57.2471H46.4785C46.4785 52.1689 47.1344 47.5986 48.4463 43.5361C49.7581 39.4313 51.599 35.9401 53.9688 33.0625C56.3385 30.1426 59.1527 27.9209 62.4111 26.3975C65.7119 24.8317 69.3936 24.0488 73.4561 24.0488C76.6722 24.0488 79.6133 24.5143 82.2793 25.4453C84.9453 26.3763 87.2305 27.8574 89.1348 29.8887C91.0814 31.9199 92.5625 34.6071 93.5781 37.9502C94.6361 41.2933 95.165 45.377 95.165 50.2012V94H76.7568V50.1377C76.7568 47.0908 76.3337 44.721 75.4873 43.0283C74.641 41.3356 73.3926 40.1507 71.7422 39.4736C70.1341 38.7542 68.1452 38.3945 65.7754 38.3945C63.321 38.3945 61.1839 38.8812 59.3643 39.8545C57.5869 40.8278 56.1058 42.182 54.9209 43.917C53.7783 45.6097 52.9108 47.5986 52.3184 49.8838C51.7259 52.1689 51.4297 54.6234 51.4297 57.2471ZM142.709 25.3184V38.2676H102.719V25.3184H142.709ZM112.621 8.37012H130.902V73.3066C130.902 75.2956 131.156 76.819 131.664 77.877C132.214 78.9349 133.018 79.6755 134.076 80.0986C135.134 80.4795 136.467 80.6699 138.075 80.6699C139.218 80.6699 140.233 80.6276 141.122 80.543C142.053 80.416 142.836 80.2891 143.471 80.1621L143.534 93.6191C141.968 94.127 140.276 94.529 138.456 94.8252C136.636 95.1214 134.626 95.2695 132.426 95.2695C128.406 95.2695 124.893 94.6136 121.889 93.3018C118.926 91.9476 116.641 89.7894 115.033 86.8271C113.425 83.8649 112.621 79.9717 112.621 75.1475V8.37012ZM184.73 95.2695C179.398 95.2695 174.617 94.4232 170.385 92.7305C166.153 90.9954 162.556 88.6045 159.594 85.5576C156.674 82.5107 154.431 78.9772 152.865 74.957C151.299 70.8945 150.517 66.5781 150.517 62.0078V59.4688C150.517 54.2637 151.257 49.5029 152.738 45.1865C154.219 40.8701 156.335 37.125 159.086 33.9512C161.879 30.7773 165.264 28.3441 169.242 26.6514C173.22 24.9163 177.706 24.0488 182.699 24.0488C187.566 24.0488 191.882 24.8529 195.648 26.4609C199.415 28.069 202.567 30.3542 205.106 33.3164C207.688 36.2786 209.634 39.8333 210.946 43.9805C212.258 48.0853 212.914 52.6556 212.914 57.6914V65.3086H158.324V53.1211H194.95V51.7246C194.95 49.1855 194.485 46.9215 193.554 44.9326C192.665 42.9014 191.311 41.2933 189.491 40.1084C187.672 38.9235 185.344 38.3311 182.509 38.3311C180.097 38.3311 178.023 38.86 176.288 39.918C174.553 40.9759 173.135 42.457 172.035 44.3613C170.977 46.2656 170.173 48.5085 169.623 51.0898C169.115 53.6289 168.861 56.4219 168.861 59.4688V62.0078C168.861 64.7585 169.242 67.2975 170.004 69.625C170.808 71.9525 171.929 73.9626 173.368 75.6553C174.849 77.348 176.627 78.6598 178.7 79.5908C180.816 80.5218 183.207 80.9873 185.873 80.9873C189.174 80.9873 192.242 80.3525 195.077 79.083C197.955 77.7712 200.43 75.8034 202.504 73.1797L211.391 82.8281C209.952 84.9017 207.984 86.8906 205.487 88.7949C203.033 90.6992 200.071 92.265 196.601 93.4922C193.131 94.6771 189.174 95.2695 184.73 95.2695ZM241.605 40.2988V94H223.324V25.3184H240.526L241.605 40.2988ZM262.299 24.874L261.981 41.8223C261.093 41.6953 260.014 41.5895 258.744 41.5049C257.517 41.3779 256.396 41.3145 255.38 41.3145C252.799 41.3145 250.556 41.653 248.651 42.3301C246.789 42.9648 245.224 43.917 243.954 45.1865C242.727 46.4561 241.796 48.0007 241.161 49.8203C240.569 51.64 240.23 53.7135 240.146 56.041L236.464 54.8984C236.464 50.4551 236.908 46.3714 237.797 42.6475C238.686 38.8812 239.976 35.6016 241.669 32.8086C243.404 30.0156 245.52 27.8574 248.017 26.334C250.513 24.8105 253.37 24.0488 256.586 24.0488C257.602 24.0488 258.638 24.1335 259.696 24.3027C260.754 24.4297 261.622 24.6201 262.299 24.874ZM288.832 39.9814V94H270.551V25.3184H287.689L288.832 39.9814ZM286.166 57.2471H281.215C281.215 52.1689 281.871 47.5986 283.183 43.5361C284.494 39.4313 286.335 35.9401 288.705 33.0625C291.075 30.1426 293.889 27.9209 297.147 26.3975C300.448 24.8317 304.13 24.0488 308.192 24.0488C311.409 24.0488 314.35 24.5143 317.016 25.4453C319.682 26.3763 321.967 27.8574 323.871 29.8887C325.818 31.9199 327.299 34.6071 328.314 37.9502C329.372 41.2933 329.901 45.377 329.901 50.2012V94H311.493V50.1377C311.493 47.0908 311.07 44.721 310.224 43.0283C309.377 41.3356 308.129 40.1507 306.479 39.4736C304.87 38.7542 302.882 38.3945 300.512 38.3945C298.057 38.3945 295.92 38.8812 294.101 39.8545C292.323 40.8278 290.842 42.182 289.657 43.917C288.515 45.6097 287.647 47.5986 287.055 49.8838C286.462 52.1689 286.166 54.6234 286.166 57.2471ZM425.434 69.8154C425.434 68.165 425.18 66.6839 424.672 65.3721C424.206 64.0179 423.318 62.7907 422.006 61.6904C420.694 60.5479 418.853 59.4264 416.483 58.3262C414.114 57.2259 411.046 56.0833 407.279 54.8984C403.09 53.5443 399.112 52.0208 395.346 50.3281C391.622 48.6354 388.321 46.6676 385.443 44.4248C382.608 42.1396 380.365 39.4948 378.715 36.4902C377.107 33.4857 376.303 29.9945 376.303 26.0166C376.303 22.1657 377.149 18.6745 378.842 15.543C380.535 12.3691 382.904 9.66081 385.951 7.41797C388.998 5.13281 392.595 3.37663 396.742 2.14941C400.932 0.922201 405.523 0.308594 410.517 0.308594C417.33 0.308594 423.275 1.53581 428.354 3.99023C433.432 6.44466 437.367 9.80892 440.16 14.083C442.995 18.3571 444.413 23.2448 444.413 28.7461H425.497C425.497 26.0378 424.926 23.668 423.783 21.6367C422.683 19.5632 420.99 17.9339 418.705 16.749C416.462 15.5641 413.627 14.9717 410.199 14.9717C406.898 14.9717 404.148 15.4795 401.947 16.4951C399.747 17.4684 398.096 18.8014 396.996 20.4941C395.896 22.1445 395.346 24.0065 395.346 26.0801C395.346 27.6458 395.727 29.0635 396.488 30.333C397.292 31.6025 398.477 32.7874 400.043 33.8877C401.609 34.988 403.534 36.0247 405.819 36.998C408.104 37.9714 410.749 38.9235 413.754 39.8545C418.79 41.3779 423.212 43.0918 427.021 44.9961C430.871 46.9004 434.088 49.0374 436.669 51.4072C439.25 53.777 441.197 56.4642 442.509 59.4688C443.821 62.4733 444.477 65.8799 444.477 69.6885C444.477 73.7087 443.694 77.3057 442.128 80.4795C440.562 83.6533 438.298 86.3405 435.336 88.541C432.374 90.7415 428.84 92.4131 424.735 93.5557C420.631 94.6982 416.039 95.2695 410.961 95.2695C406.391 95.2695 401.884 94.6771 397.44 93.4922C392.997 92.265 388.956 90.4242 385.316 87.9697C381.719 85.5153 378.842 82.3838 376.684 78.5752C374.525 74.7666 373.446 70.2598 373.446 65.0547H392.553C392.553 67.9323 392.997 70.3656 393.886 72.3545C394.774 74.3434 396.023 75.9515 397.631 77.1787C399.281 78.4059 401.228 79.2946 403.471 79.8447C405.756 80.3949 408.253 80.6699 410.961 80.6699C414.262 80.6699 416.97 80.2044 419.086 79.2734C421.244 78.3424 422.831 77.0518 423.847 75.4014C424.905 73.751 425.434 71.889 425.434 69.8154ZM519.062 39.2197V54.0732H470.819V39.2197H519.062ZM476.469 1.57812V94H457.426V1.57812H476.469ZM532.646 1.57812V94H513.666V1.57812H532.646ZM569.462 1.57812V94H550.482V1.57812H569.462ZM623.29 61.0557H599.74V46.2021H623.29C626.929 46.2021 629.892 45.6097 632.177 44.4248C634.462 43.1976 636.133 41.5049 637.191 39.3467C638.249 37.1885 638.778 34.7552 638.778 32.0469C638.778 29.2962 638.249 26.736 637.191 24.3662C636.133 21.9964 634.462 20.0921 632.177 18.6533C629.892 17.2145 626.929 16.4951 623.29 16.4951H606.342V94H587.299V1.57812H623.29C630.526 1.57812 636.726 2.88997 641.889 5.51367C647.094 8.09505 651.072 11.6709 653.822 16.2412C656.573 20.8115 657.948 26.0378 657.948 31.9199C657.948 37.8867 656.573 43.0495 653.822 47.4082C651.072 51.7669 647.094 55.1312 641.889 57.501C636.726 59.8708 630.526 61.0557 623.29 61.0557Z" fill="white"/>
</svg>
