<svg width="80" height="80" viewBox="0 0 80 80" fill="none" xmlns="http://www.w3.org/2000/svg">
    <rect x="0.5" y="0.5" width="79" height="79" rx="5.5" stroke="#D9D9D9"/>
    <path d="M17.0417 69C15.3802 69 13.9584 68.4228 12.7762 67.2684C11.5921 66.1119 11 64.7225 11 63.1V15.9C11 14.2775 11.5921 12.888 12.7762 11.7316C13.9584 10.5772 15.3802 10 17.0417 10H41.2083L59.3333 27.7V39.5H53.2917V30.65H38.1875V15.9H17.0417V63.1H35.1667V69H17.0417ZM54.1979 46.9487L57.4453 50.12L45.7396 61.4775V64.575H48.9115L60.6172 53.2175L63.7891 56.315L50.7995 69H41.2083V59.6338L54.1979 46.9487ZM63.7891 56.315L54.1979 46.9487L58.5781 42.6712C59.1319 42.1304 59.8368 41.86 60.6927 41.86C61.5486 41.86 62.2535 42.1304 62.8073 42.6712L68.1693 47.9075C68.7231 48.4483 69 49.1367 69 49.9725C69 50.8083 68.7231 51.4967 68.1693 52.0375L63.7891 56.315Z" fill="#616161"/>
</svg>
