<svg width="16" height="20" viewBox="0 0 16 20" fill="none" xmlns="http://www.w3.org/2000/svg">
    <path d="M13.625 6.66667H12.6875V4.7619C12.6875 2.13333 10.5875 0 8 0C5.4125 0 3.3125 2.13333 3.3125 4.7619V6.66667H2.375C1.34375 6.66667 0.5 7.52381 0.5 8.57143V18.0952C0.5 19.1429 1.34375 20 2.375 20H13.625C14.6562 20 15.5 19.1429 15.5 18.0952V8.57143C15.5 7.52381 14.6562 6.66667 13.625 6.66667ZM5.1875 4.7619C5.1875 3.18095 6.44375 1.90476 8 1.90476C9.55625 1.90476 10.8125 3.18095 10.8125 4.7619V6.66667H5.1875V4.7619ZM13.625 18.0952H2.375V8.57143H13.625V18.0952ZM8 15.2381C9.03125 15.2381 9.875 14.381 9.875 13.3333C9.875 12.2857 9.03125 11.4286 8 11.4286C6.96875 11.4286 6.125 12.2857 6.125 13.3333C6.125 14.381 6.96875 15.2381 8 15.2381Z" fill="#B91C1C"/>
</svg>
