<svg width="35" height="28" viewBox="0 0 35 28" fill="none" xmlns="http://www.w3.org/2000/svg">
    <path d="M17.5 0C17.5 0 6.55471 -5.48661e-05 3.82471 0.731445C2.31796 1.13395 1.13395 2.31971 0.731445 3.82471C-5.48661e-05 6.55471 0 14 0 14C0 14 -5.48661e-05 21.4453 0.731445 24.1753C1.13395 25.682 2.31971 26.8661 3.82471 27.2686C6.55471 28.0001 17.5 28 17.5 28C17.5 28 28.4453 28.0001 31.1753 27.2686C32.6803 26.8661 33.8661 25.6803 34.2686 24.1753C35.0001 21.4453 35 14 35 14C35 14 35.0001 6.55471 34.2686 3.82471C33.8661 2.31971 32.6803 1.13395 31.1753 0.731445C28.4453 -5.48661e-05 17.5 0 17.5 0ZM17.5 3.5C22.5435 3.5 28.859 3.73382 30.2695 4.11182C30.5653 4.19057 30.8077 4.43297 30.8882 4.73047C31.3099 6.30197 31.5 11.0985 31.5 14C31.5 16.9015 31.3099 21.6963 30.8882 23.2695C30.8094 23.5653 30.567 23.8077 30.2695 23.8882C28.8608 24.2662 22.5435 24.5 17.5 24.5C12.4583 24.5 6.14272 24.2662 4.73047 23.8882C4.43472 23.8094 4.19232 23.567 4.11182 23.2695C3.69007 21.698 3.5 16.9015 3.5 14C3.5 11.0985 3.69007 6.30205 4.11182 4.72705C4.19057 4.43305 4.43297 4.19057 4.73047 4.11182C6.13922 3.73382 12.4565 3.5 17.5 3.5ZM14 7.93652V20.0635L24.5 14L14 7.93652Z" fill="#676767"/>
</svg>
